HIERARCHY
ROOT Hips
{
	OFFSET 0.000000 0.000000 0.000000
	CHANNELS 6 Xposition Yposition Zposition Zrotation Yrotation Xrotation 
	JOINT LowerBack
	{
		OFFSET 0.000000 0.000000 0.000000
		CHANNELS 3 Zrotation Yrotation Xrotation
		JOINT Spine
		{
			OFFSET 0.028270 2.035590 -0.193380
			CHANNELS 3 Zrotation Yrotation Xrotation
			JOINT Spine1
			{
				OFFSET 0.056720 2.048850 -0.042750
				CHANNELS 3 Zrotation Yrotation Xrotation
				JOINT Neck
				{
					OFFSET 0.000000 0.000000 0.000000
					CHANNELS 3 Zrotation Yrotation Xrotation
					JOINT Neck1
					{
						OFFSET -0.054170 1.746240 0.172020
						CHANNELS 3 Zrotation Yrotation Xrotation
						JOINT Head
						{
							OFFSET 0.104070 1.761360 -0.123970
							CHANNELS 3 Zrotation Yrotation Xrotation
							End Site
							{
								OFFSET 0.000000 0.000000 0.000000
							}
						}
					}
				}
				JOINT LeftShoulder
				{
					OFFSET 0.000000 0.000000 0.000000
					CHANNELS 3 Zrotation Yrotation Xrotation
					JOINT LeftArm
					{
						OFFSET 3.362410 1.200890 -0.311210
						CHANNELS 3 Zrotation Yrotation Xrotation
						JOINT LeftForeArm
						{
							OFFSET 4.983000 -0.000000 -0.000000
							CHANNELS 3 Zrotation Yrotation Xrotation
							JOINT LeftHand
							{
								OFFSET 3.483560 -0.000000 -0.000000
								CHANNELS 3 Zrotation Yrotation Xrotation
								JOINT LeftFingerBase
								{
									OFFSET 0.000000 0.000000 0.000000
									CHANNELS 3 Zrotation Yrotation Xrotation
									JOINT LeftHandIndex1
									{
										OFFSET 0.715260 -0.000000 -0.000000
										CHANNELS 3 Zrotation Yrotation Xrotation
										End Site
										{
											OFFSET 0.000000 0.000000 0.000000
										}
									}
								}
								JOINT LThumb
								{
									OFFSET 0.000000 0.000000 0.000000
									CHANNELS 3 Zrotation Yrotation Xrotation
									End Site
									{
										OFFSET 0.000000 0.000000 0.000000
									}
								}
							}
						}
					}
				}
				JOINT RightShoulder
				{
					OFFSET 0.000000 0.000000 0.000000
					CHANNELS 3 Zrotation Yrotation Xrotation
					JOINT RightArm
					{
						OFFSET -3.136600 1.374050 -0.404650
						CHANNELS 3 Zrotation Yrotation Xrotation
						JOINT RightForeArm
						{
							OFFSET -5.241900 -0.000000 -0.000000
							CHANNELS 3 Zrotation Yrotation Xrotation
							JOINT RightHand
							{
								OFFSET -3.444170 -0.000000 -0.000000
								CHANNELS 3 Zrotation Yrotation Xrotation
								JOINT RightFingerBase
								{
									OFFSET 0.000000 0.000000 0.000000
									CHANNELS 3 Zrotation Yrotation Xrotation
									JOINT RightHandIndex1
									{
										OFFSET -0.622530 -0.000000 -0.000000
										CHANNELS 3 Zrotation Yrotation Xrotation
										End Site
										{
											OFFSET 0.000000 0.000000 0.000000
										}
									}
								}
								JOINT RThumb
								{
									OFFSET 0.000000 0.000000 0.000000
									CHANNELS 3 Zrotation Yrotation Xrotation
									End Site
									{
										OFFSET 0.000000 0.000000 0.000000
									}
								}
							}
						}
					}
				}
			}
		}
	}
}
}
MOTION
Frames: 17
Frame Time: 0.008333
-10.374337 16.953292 -1.537823 172.213954 83.428126 176.347464 -0.002100 -5.132710 -2.634727 -0.622825 -5.304339 -2.549257 -6.899043 -5.199819 3.309661 12.233706 -20.036445 -11.720392 -2.670374 -0.152588 -1.026671 0.000000 0.000000 0.000000 2.339070 16.452457 1.104871 -33.269121 3.496387 -3.583134 -1.077184 -66.653324 -0.011165 4.014658 0.259935 0.003943 -0.144957 0.185529 0.000000 0.000000 0.000000 0.000000 0.000000 0.000000 0.000000 19.558273 -18.042234 0.104520 80.293433 -17.111152 -13.985288 3.852134 20.119459 0.008696 -0.046539 4.079929 -0.005148 0.109984 -0.037383 -0.000000 0.000000 0.000000 0.000000 0.000000 0.000000 0.000000 
-10.162900 16.960176 -1.522819 172.952334 83.443414 177.002225 0.160936 -5.061898 -2.657044 -0.591680 -5.242647 -2.568314 -6.889832 -5.141250 3.275491 12.206075 -19.814299 -11.670063 -2.676543 -0.154272 -1.012765 0.000000 0.000000 0.000000 2.164596 16.541953 1.112370 -33.914704 4.071578 -3.592380 -1.137421 -65.879340 -0.011912 4.377020 0.375744 0.009183 -0.152307 0.176524 0.000000 0.000000 0.000000 0.000000 0.000000 0.000000 0.000000 19.462018 -17.748365 0.091247 79.935471 -16.457992 -13.974543 3.867952 19.901360 0.008611 0.081041 4.017991 -0.000549 0.109255 -0.037912 -0.000000 0.000000 0.000000 0.000000 0.000000 0.000000 0.000000 
-9.955314 16.967530 -1.507661 173.746983 83.503198 177.741076 0.320026 -4.981876 -2.671057 -0.560885 -5.171059 -2.587494 -6.876062 -5.073284 3.237723 12.181183 -19.596219 -11.622007 -2.674403 -0.155185 -0.999493 0.000000 0.000000 0.000000 2.000027 16.613368 1.120754 -34.668616 4.717426 -3.535887 -1.205525 -65.038676 -0.012427 4.703186 0.505812 0.015717 -0.159158 0.166473 -0.000000 0.000000 0.000000 0.000000 0.000000 0.000000 0.000000 19.323956 -17.453606 0.083746 79.546153 -15.703533 -13.846039 3.877627 19.734582 0.008583 0.153899 3.986922 0.002055 0.108911 -0.038776 -0.000000 0.000000 0.000000 0.000000 0.000000 0.000000 0.000000 
-9.751457 16.975285 -1.491894 174.486797 83.595134 178.452152 0.458247 -4.894008 -2.676541 -0.535015 -5.089902 -2.606220 -6.862397 -4.995953 3.195149 12.163094 -19.361838 -11.573643 -2.669310 -0.155821 -0.986315 0.000000 0.000000 0.000000 1.849724 16.678047 1.131173 -35.507483 5.398728 -3.393503 -1.282267 -64.124695 -0.012610 4.971922 0.629522 0.022648 -0.165236 0.155562 0.000000 0.000000 0.000000 0.000000 0.000000 0.000000 0.000000 19.169964 -17.134592 0.078953 79.144093 -14.897775 -13.727710 3.881187 19.687997 0.008567 0.204901 3.960291 0.003860 0.108711 -0.040103 -0.000000 0.000000 0.000000 0.000000 0.000000 0.000000 0.000000 
-9.551100 16.983278 -1.475399 175.165197 83.705952 179.132173 0.571106 -4.800403 -2.677994 -0.514271 -5.001007 -2.624704 -6.846389 -4.911141 3.150090 12.148839 -19.134074 -11.527160 -2.659415 -0.155999 -0.973696 0.000000 0.000000 0.000000 1.715928 16.724402 1.142318 -36.428425 6.119598 -3.173014 -1.367352 -63.145144 -0.012425 5.156173 0.749647 0.029571 -0.170198 0.143864 0.000000 0.000000 0.000000 0.000000 0.000000 0.000000 0.000000 18.995061 -16.817828 0.077061 78.723792 -14.036023 -13.555060 3.877088 19.755872 0.008598 0.205146 3.958581 0.003868 0.108857 -0.041913 -0.000000 0.000000 0.000000 0.000000 0.000000 0.000000 0.000000 
-9.353926 16.991453 -1.458006 175.755508 83.820694 179.753314 0.653163 -4.703015 -2.677305 -0.499811 -4.906056 -2.642812 -6.828733 -4.820427 3.103206 12.137245 -18.910848 -11.481107 -2.646666 -0.155909 -0.961259 0.000000 0.000000 0.000000 1.600940 16.754495 1.154010 -37.423334 6.860174 -2.875584 -1.461539 -62.092414 -0.011865 5.238580 0.863902 0.035987 -0.173899 0.131498 -0.000000 0.000000 0.000000 0.000000 0.000000 0.000000 0.000000 18.807719 -16.502201 0.076056 78.288154 -13.141304 -13.347501 3.865173 19.958722 0.008667 0.159495 3.980667 0.002279 0.109310 -0.044230 -0.000000 0.000000 0.000000 0.000000 0.000000 0.000000 0.000000 
-9.159520 16.999848 -1.439660 176.249089 83.925361 -179.693890 0.702891 -4.602882 -2.677925 -0.491736 -4.806077 -2.660893 -6.808887 -4.724827 3.055187 12.125550 -18.699037 -11.434061 -2.631732 -0.155641 -0.948559 0.000000 0.000000 0.000000 1.504735 16.761348 1.165212 -38.486238 7.614241 -2.509838 -1.565074 -60.963668 -0.010980 5.207120 0.973280 0.041592 -0.176263 0.118557 -0.000000 0.000000 0.000000 0.000000 0.000000 0.000000 0.000000 18.610253 -16.196622 0.075075 77.834574 -12.227639 -13.091624 3.845464 20.300932 0.008771 0.067357 4.027781 -0.001007 0.110080 -0.047023 -0.000000 0.000000 0.000000 0.000000 0.000000 0.000000 0.000000 
-8.967496 17.008526 -1.420278 176.592544 84.009483 -179.267932 0.713719 -4.501179 -2.678769 -0.491261 -4.701836 -2.678375 -6.786622 -4.625099 3.006550 12.112772 -18.501519 -11.384086 -2.615627 -0.155309 -0.935074 0.000000 0.000000 0.000000 1.428083 16.741590 1.175032 -39.611147 8.373099 -2.089645 -1.678268 -59.753049 -0.009846 5.057271 1.080489 0.045989 -0.177315 0.105152 0.000000 0.000000 0.000000 0.000000 0.000000 0.000000 0.000000 18.408036 -15.906071 0.072990 77.358659 -11.307927 -12.771114 3.818016 20.781572 0.008900 -0.067695 4.096898 -0.005988 0.111139 -0.050216 -0.000000 0.000000 0.000000 0.000000 0.000000 0.000000 0.000000 
-8.777395 17.017607 -1.399890 176.781875 84.066021 -178.976719 0.686574 -4.398167 -2.681055 -0.498079 -4.593714 -2.695534 -6.761608 -4.521660 2.957001 12.096378 -18.317559 -11.328042 -2.599301 -0.155050 -0.919912 0.000000 0.000000 0.000000 1.368475 16.690239 1.182501 -40.792967 9.136070 -1.632968 -1.801089 -58.458172 -0.008570 4.793103 1.189328 0.048976 -0.177179 0.091382 0.000000 0.000000 0.000000 0.000000 0.000000 0.000000 0.000000 18.202456 -15.631260 0.069250 76.855189 -10.395585 -12.379129 3.783782 21.394164 0.009036 -0.234815 4.181114 -0.012270 0.112431 -0.053712 -0.000000 0.000000 0.000000 0.000000 0.000000 0.000000 0.000000 
-8.588828 17.027193 -1.378687 176.825020 84.093284 -178.816662 0.623852 -4.293574 -2.685054 -0.511589 -4.481638 -2.712173 -6.733351 -4.414434 2.907535 12.075130 -18.144256 -11.264014 -2.583414 -0.154951 -0.902560 0.000000 0.000000 0.000000 1.324616 16.614570 1.186620 -42.029573 9.887831 -1.157856 -1.933686 -57.069221 -0.007283 4.427595 1.302575 0.050552 -0.176082 0.077426 0.000000 0.000000 0.000000 0.000000 0.000000 0.000000 0.000000 17.995558 -15.370434 0.062714 76.316778 -9.501429 -11.908782 3.744032 22.127556 0.009167 -0.419481 4.271655 -0.019547 0.113879 -0.057386 -0.000000 0.000000 0.000000 0.000000 0.000000 0.000000 0.000000 
-8.401461 17.037456 -1.356838 176.739692 84.094750 -178.774589 0.529143 -4.186705 -2.690740 -0.530959 -4.365170 -2.728448 -6.701315 -4.303043 2.857915 12.047755 -17.979304 -11.189792 -2.568229 -0.155070 -0.882394 0.000000 0.000000 0.000000 1.291741 16.514806 1.186476 -43.316530 10.632601 -0.688786 -2.075205 -55.588372 -0.006101 3.979502 1.424863 0.050720 -0.174269 0.063415 0.000000 0.000000 0.000000 0.000000 0.000000 0.000000 0.000000 17.786642 -15.122011 0.053601 75.735023 -8.630556 -11.351165 3.700142 22.962603 0.009276 -0.608158 4.358953 -0.027323 0.115415 -0.061104 -0.000000 0.000000 0.000000 0.000000 0.000000 0.000000 0.000000 
-8.214995 17.048496 -1.334573 176.553847 84.078982 -178.825825 0.407169 -4.076564 -2.698384 -0.555111 -4.243649 -2.744386 -6.664854 -4.186866 2.808768 12.014049 -17.819082 -11.104358 -2.553668 -0.155419 -0.859145 0.000000 0.000000 0.000000 1.265877 16.399486 1.181311 -44.651167 11.367102 -0.249007 -2.224568 -54.015985 -0.005128 3.473838 1.559077 0.049279 -0.172026 0.049533 0.000000 0.000000 0.000000 0.000000 0.000000 0.000000 0.000000 17.574958 -14.882626 0.041922 75.100979 -7.785363 -10.701099 3.653619 23.879098 0.009357 -0.785720 4.434339 -0.034798 0.116963 -0.064734 -0.000000 0.000000 0.000000 0.000000 0.000000 0.000000 0.000000 
-8.029192 17.060401 -1.312096 176.272291 84.058696 -178.968998 0.260644 -3.962255 -2.707636 -0.583455 -4.116380 -2.759839 -6.623860 -4.065226 2.760895 11.975699 -17.656820 -11.007988 -2.539882 -0.156002 -0.832933 0.000000 0.000000 0.000000 1.242766 16.283368 1.171034 -46.028528 12.085228 0.139428 -2.380451 -52.353801 -0.004436 2.937736 1.704814 0.046530 -0.169624 0.035981 0.000000 0.000000 0.000000 0.000000 0.000000 0.000000 0.000000 17.362615 -14.644870 0.027588 74.405429 -6.967512 -9.960599 3.605798 24.856627 0.009419 -0.937560 4.495009 -0.041473 0.118431 -0.068180 -0.000000 0.000000 0.000000 0.000000 0.000000 0.000000 0.000000 
-7.843913 17.073081 -1.289603 175.960967 84.048805 -179.136411 0.099601 -3.842287 -2.723456 -0.613748 -3.982649 -2.777006 -6.577498 -3.937621 2.710422 11.930101 -17.500118 -10.898545 -2.525426 -0.156752 -0.803000 0.000000 0.000000 0.000000 1.207001 16.138805 1.154485 -47.437282 12.849919 0.441717 -2.538060 -50.648808 -0.004076 2.398647 1.874348 0.042674 -0.167211 0.022728 0.000000 0.000000 0.000000 0.000000 0.000000 0.000000 0.000000 17.139054 -14.416232 0.015499 73.647395 -6.167561 -9.126110 3.557930 25.872276 0.009428 -1.056184 4.518800 -0.046449 0.119810 -0.071300 -0.000000 0.000000 0.000000 0.000000 0.000000 0.000000 0.000000 
-7.658933 17.086508 -1.267216 175.580930 84.065808 -179.368545 -0.078333 -3.716175 -2.744095 -0.646494 -3.841835 -2.793889 -6.526116 -3.803233 2.663956 11.884261 -17.335860 -10.782883 -2.510517 -0.157553 -0.771459 0.000000 0.000000 0.000000 1.165771 16.025353 1.133210 -48.879132 13.589768 0.657779 -2.697951 -48.870117 -0.004028 1.884705 2.053501 0.037712 -0.165060 0.010197 -0.000000 0.000000 0.000000 0.000000 0.000000 0.000000 0.000000 16.915971 -14.181697 0.001821 72.816267 -5.386217 -8.207661 3.510571 26.916445 0.009427 -1.129909 4.520924 -0.049524 0.120987 -0.074083 -0.000000 0.000000 0.000000 0.000000 0.000000 0.000000 0.000000 
-7.474215 17.100396 -1.245008 175.131454 84.125705 -179.663965 -0.269366 -3.583217 -2.773031 -0.680796 -3.693588 -2.811763 -6.469566 -3.661822 2.619747 11.838264 -17.169210 -10.662593 -2.493969 -0.158292 -0.738662 0.000000 0.000000 0.000000 1.108003 15.932665 1.107418 -50.341888 14.342774 0.766026 -2.855967 -47.057263 -0.004262 1.415771 2.244391 0.032046 -0.163203 -0.001595 -0.000000 0.000000 0.000000 0.000000 0.000000 0.000000 0.000000 16.688608 -13.945483 -0.009978 71.912919 -4.613408 -7.209422 3.464153 27.973291 0.009413 -1.158131 4.496912 -0.050401 0.121963 -0.076498 -0.000000 0.000000 0.000000 0.000000 0.000000 0.000000 0.000000 
-7.289571 17.114460 -1.223003 174.585947 84.242392 179.953289 -0.472544 -3.443052 -2.812691 -0.716398 -3.537704 -2.830807 -6.407911 -3.513171 2.579312 11.794079 -17.000532 -10.542077 -2.474879 -0.158823 -0.705835 0.000000 0.000000 0.000000 1.030885 15.874394 1.078315 -51.818605 15.106449 0.760330 -3.009763 -45.226481 -0.004715 1.006128 2.441839 0.025978 -0.161662 -0.012530 -0.000000 0.000000 0.000000 0.000000 0.000000 0.000000 0.000000 16.457143 -13.706548 -0.018972 70.939060 -3.842019 -6.143435 3.418571 29.035790 0.009400 -1.141466 4.450144 -0.049279 0.122724 -0.078564 -0.000000 0.000000 0.000000 0.000000 0.000000 0.000000 0.000000 
